<svg xmlns="http://www.w3.org/2000/svg" viewBox="0 0 512 512" width="512" height="512">
  <!-- Indigo rounded square background -->
  <rect width="512" height="512" rx="96" fill="#4F46E5"/>

  <defs>
    <filter id="shadow" x="-10%" y="-10%" width="140%" height="140%">
      <feDropShadow dx="4" dy="6" stdDeviation="10" flood-color="#1e1b4b" flood-opacity="0.4"/>
    </filter>
  </defs>

  <!-- Die: x=88, y=118, w=372, h=372 → center=(274,304) -->
  <rect x="88" y="118" width="372" height="372" rx="66" fill="white" filter="url(#shadow)"/>

  <!-- 5-face pips — centered on die with 82px padding -->
  <circle cx="170" cy="200" r="26" fill="#4338CA"/>
  <circle cx="378" cy="200" r="26" fill="#4338CA"/>
  <circle cx="274" cy="304" r="26" fill="#4338CA"/>
  <circle cx="170" cy="408" r="26" fill="#4338CA"/>
  <circle cx="378" cy="408" r="26" fill="#4338CA"/>

  <!-- Crown — anchored slightly further onto the die so its lower-right
       edge clips ~25-30% of the top-left pip -->
  <g transform="translate(130,170) rotate(-38)">
    <path d="M -120,40 L -120,-78 L -62,-30 L 0,-130 L 62,-30 L 120,-78 L 120,40 Z"
          fill="#FBBF24"/>
    <rect x="-120" y="12" width="240" height="32" rx="7" fill="#F59E0B"/>
    <circle cx="0" cy="-130" r="17" fill="#EF4444"/>
    <circle cx="-62" cy="-30" r="11" fill="#FCA5A5"/>
    <circle cx="62" cy="-30" r="11" fill="#FCA5A5"/>
  </g>
</svg>
