<svg xmlns="http://www.w3.org/2000/svg" viewBox="0 0 512 512" width="512" height="512">
  <!-- Indigo rounded square background -->
  <rect width="512" height="512" rx="96" fill="#4F46E5"/>

  <defs>
    <filter id="shadow" x="-10%" y="-10%" width="140%" height="140%">
      <feDropShadow dx="4" dy="6" stdDeviation="10" flood-color="#1e1b4b" flood-opacity="0.4"/>
    </filter>
  </defs>

  <!-- Die — centered slightly right+down to leave breathing room at top-left -->
  <rect x="148" y="155" width="310" height="310" rx="56" fill="white" filter="url(#shadow)"/>

  <!-- 5-face dots (indigo) -->
  <circle cx="232" cy="232" r="23" fill="#4338CA"/>
  <circle cx="392" cy="232" r="23" fill="#4338CA"/>
  <circle cx="312" cy="310" r="23" fill="#4338CA"/>
  <circle cx="232" cy="388" r="23" fill="#4338CA"/>
  <circle cx="392" cy="388" r="23" fill="#4338CA"/>

  <!-- Crown — centered on the top-left corner of the die (148,155),
       tilted -38deg so it looks casually perched on the corner -->
  <g transform="translate(148,155) rotate(-38)">
    <!-- Crown body -->
    <path d="M -62,22 L -62,-38 L -32,-14 L 0,-66 L 32,-14 L 62,-38 L 62,22 Z"
          fill="#FBBF24"/>
    <!-- Crown band -->
    <rect x="-62" y="6" width="124" height="20" rx="5" fill="#F59E0B"/>
    <!-- Centre jewel -->
    <circle cx="0" cy="-66" r="10" fill="#EF4444"/>
    <!-- Small side jewels -->
    <circle cx="-32" cy="-14" r="6" fill="#FCA5A5"/>
    <circle cx="32" cy="-14" r="6" fill="#FCA5A5"/>
  </g>
</svg>
